<svg xmlns="http://www.w3.org/2000/svg" xmlns:xlink="http://www.w3.org/1999/xlink" width="139" height="27" viewBox="0 0 139 27">
  <defs>
    <clipPath id="clip-logo_main">
      <rect width="139" height="27"/>
    </clipPath>
  </defs>
  <g id="logo_main" clip-path="url(#clip-logo_main)">
    <rect width="139" height="27" fill="#fff"/>
    <g id="logo" transform="translate(0.002 -0.006)">
      <g id="서울역사편찬원" transform="translate(-30.267 -3.262)" style="isolation: isolate">
        <g id="그룹_7865" data-name="그룹 7865" style="isolation: isolate">
          <path id="패스_6770" data-name="패스 6770" d="M37.441,12.178a9.657,9.657,0,0,0,1.1,4.623,5.082,5.082,0,0,0,2.438,2.093,1.142,1.142,0,0,1,.449.31.858.858,0,0,1,.1.472V21.4c0,.169-.061.273-.184.311a.781.781,0,0,1-.437-.012,8.2,8.2,0,0,1-3.082-1.587,9.537,9.537,0,0,1-1.093-1.138,6.336,6.336,0,0,1-.839-1.369,6.016,6.016,0,0,1-1.046,1.61A10.189,10.189,0,0,1,33.416,20.5a6.39,6.39,0,0,1-1.2.69,11.715,11.715,0,0,1-1.334.506.621.621,0,0,1-.437.023.3.3,0,0,1-.184-.322V19.676a.84.84,0,0,1,.1-.472,1.129,1.129,0,0,1,.448-.31A5.087,5.087,0,0,0,33.255,16.8a9.657,9.657,0,0,0,1.1-4.623V8.015a.321.321,0,0,1,.126-.23.391.391,0,0,1,.265-.115h2.323a.351.351,0,0,1,.253.115.334.334,0,0,1,.115.23ZM47.055,6.52a.4.4,0,0,1,.253.092.307.307,0,0,1,.115.253V26.99a.314.314,0,0,1-.115.241.367.367,0,0,1-.253.1h-2.3a.317.317,0,0,1-.253-.1.348.348,0,0,1-.092-.241V15.1H40.569a.329.329,0,0,1-.241-.1.3.3,0,0,1-.1-.218V13.305a.356.356,0,0,1,.1-.265.332.332,0,0,1,.241-.1H44.41V6.865a.3.3,0,0,1,.345-.345Z" fill="#222"/>
          <path id="패스_6771" data-name="패스 6771" d="M52.437,22.229a.224.224,0,0,1,.253-.253H63.2v-.552q0-.667-.575-.667H52.713c-.184,0-.276-.076-.276-.23V18.871c0-.153.092-.23.276-.23H57.98V17.7H51.149c-.2,0-.3-.084-.3-.253V15.858c0-.184.1-.276.3-.276h16.79c.153,0,.23.092.23.276v1.587c0,.169-.077.253-.23.253H60.993v.943h3.1a2.273,2.273,0,0,1,1.622.552,1.987,1.987,0,0,1,.586,1.518v1.242q0,1.956-2.07,1.955H55.542v.437a.827.827,0,0,0,.276.656,1.118,1.118,0,0,0,.759.241h9.729a.306.306,0,0,1,.184.069.219.219,0,0,1,.092.184v1.587a.22.22,0,0,1-.092.184.306.306,0,0,1-.184.069H56.232a3.421,3.421,0,0,1-3.795-3.726ZM65.248,10.66a3.541,3.541,0,0,1-.437,1.736,4.312,4.312,0,0,1-1.219,1.38,6.046,6.046,0,0,1-1.84.92,8.086,8.086,0,0,1-4.6,0,6.035,6.035,0,0,1-1.84-.92,4.312,4.312,0,0,1-1.219-1.38,3.541,3.541,0,0,1-.437-1.736,3.609,3.609,0,0,1,.437-1.748,4.275,4.275,0,0,1,1.219-1.391,6.08,6.08,0,0,1,1.84-.92,8.086,8.086,0,0,1,4.6,0,6.092,6.092,0,0,1,1.84.92,4.275,4.275,0,0,1,1.219,1.391A3.609,3.609,0,0,1,65.248,10.66Zm-3.082,0a2.081,2.081,0,0,0-.23-1,2.023,2.023,0,0,0-.621-.7,2.858,2.858,0,0,0-.885-.414,3.868,3.868,0,0,0-2.048,0,2.725,2.725,0,0,0-.874.414,2.113,2.113,0,0,0,0,3.4,2.725,2.725,0,0,0,.874.414,3.868,3.868,0,0,0,2.048,0,2.729,2.729,0,0,0,.885-.425,2.127,2.127,0,0,0,.621-.713A2.03,2.03,0,0,0,62.166,10.66Z" fill="#222"/>
          <path id="패스_6772" data-name="패스 6772" d="M87.672,18.135a.3.3,0,0,1-.114.253.4.4,0,0,1-.253.092H84.981q-.321,0-.321-.345V15.6H80.5a4.943,4.943,0,0,1-1.933,1.7,6.368,6.368,0,0,1-4.921.2,5.348,5.348,0,0,1-1.76-1.127,5.2,5.2,0,0,1-1.173-1.737,5.753,5.753,0,0,1-.425-2.254,5.774,5.774,0,0,1,.425-2.242A5.162,5.162,0,0,1,71.883,8.4a5.3,5.3,0,0,1,1.76-1.127,6.3,6.3,0,0,1,4.8.149,5.23,5.23,0,0,1,1.9,1.541H84.66V6.865q0-.345.321-.345h2.324a.4.4,0,0,1,.253.092.306.306,0,0,1,.114.253Zm-9.338-5.75a4.388,4.388,0,0,0-.218-1.438,3.8,3.8,0,0,0-.563-1.081,2.37,2.37,0,0,0-.794-.678,2,2,0,0,0-1.863,0,2.484,2.484,0,0,0-.805.678,3.458,3.458,0,0,0-.564,1.081,4.651,4.651,0,0,0-.207,1.438,4.752,4.752,0,0,0,.207,1.449,3.28,3.28,0,0,0,.564,1.081,2.534,2.534,0,0,0,.805.667,2,2,0,0,0,1.863,0,2.415,2.415,0,0,0,.794-.667,3.586,3.586,0,0,0,.563-1.081A4.482,4.482,0,0,0,78.334,12.385Zm-3.956,9.729a.237.237,0,0,1-.172-.081.264.264,0,0,1-.081-.2V19.975a.266.266,0,0,1,.081-.2.244.244,0,0,1,.172-.08H84.706a3.044,3.044,0,0,1,2.173.747,2.693,2.693,0,0,1,.793,2.059V26.99a.365.365,0,0,1-.092.23.327.327,0,0,1-.275.115H85.027a.338.338,0,0,1-.264-.115.346.346,0,0,1-.1-.23V23.609a1.443,1.443,0,0,0-.4-1.15,1.855,1.855,0,0,0-1.231-.345Zm7.061-9.729a5.46,5.46,0,0,1-.091,1.058H84.66V11.12H81.3A5.755,5.755,0,0,1,81.439,12.385Z" fill="#222"/>
          <path id="패스_6773" data-name="패스 6773" d="M97.815,12.178a9.645,9.645,0,0,0,1.1,4.623,5.08,5.08,0,0,0,2.437,2.093,1.147,1.147,0,0,1,.45.31.858.858,0,0,1,.1.472V21.4c0,.169-.062.273-.184.311a.781.781,0,0,1-.437-.012,8.2,8.2,0,0,1-3.082-1.587,9.545,9.545,0,0,1-1.094-1.138,6.336,6.336,0,0,1-.839-1.369,6.037,6.037,0,0,1-1.045,1.61A10.244,10.244,0,0,1,93.791,20.5a6.422,6.422,0,0,1-1.2.69,11.859,11.859,0,0,1-1.334.506.621.621,0,0,1-.437.023.3.3,0,0,1-.184-.322V19.676a.849.849,0,0,1,.1-.472,1.137,1.137,0,0,1,.448-.31A5.087,5.087,0,0,0,93.629,16.8a9.646,9.646,0,0,0,1.1-4.623V8.015a.321.321,0,0,1,.126-.23.393.393,0,0,1,.266-.115h2.322a.355.355,0,0,1,.254.115.332.332,0,0,1,.114.23ZM106.97,6.52a.4.4,0,0,1,.253.092.309.309,0,0,1,.115.253V12.8h2.414a.334.334,0,0,1,.242.1.366.366,0,0,1,.1.265v1.472a.311.311,0,0,1-.1.218.327.327,0,0,1-.242.1h-2.414V26.99a.317.317,0,0,1-.115.241.367.367,0,0,1-.253.1h-2.3a.32.32,0,0,1-.254-.1.352.352,0,0,1-.092-.241V6.865a.305.305,0,0,1,.346-.345Z" fill="#222"/>
          <path id="패스_6774" data-name="패스 6774" d="M110.488,18.434c-.2,0-.3-.084-.3-.253v-1.7c0-.184.1-.276.3-.276h1.68V9.441h-1.449c-.2,0-.3-.085-.3-.253v-1.7c0-.184.1-.276.3-.276h10.925c.153,0,.229.092.229.276v1.7c0,.168-.076.253-.229.253h-1.38V16.2h2.07c.152,0,.229.092.229.276v1.7c0,.169-.077.253-.229.253Zm17.457,6.486a.238.238,0,0,1,.173.081.263.263,0,0,1,.081.195v1.863a.268.268,0,0,1-.081.2.244.244,0,0,1-.173.08H117.25a3.041,3.041,0,0,1-2.173-.747,2.694,2.694,0,0,1-.794-2.059V20.458a.372.372,0,0,1,.092-.23.333.333,0,0,1,.276-.115h2.278a.34.34,0,0,1,.264.115.349.349,0,0,1,.1.23v2.967a1.443,1.443,0,0,0,.4,1.15,1.855,1.855,0,0,0,1.231.345ZM115.088,16.2h2.254V9.441h-2.254Zm12.834,5.612a.3.3,0,0,1-.114.253.4.4,0,0,1-.253.092h-2.324q-.321,0-.321-.345v-6.3h-2.691a.329.329,0,0,1-.242-.1.305.305,0,0,1-.1-.218V13.719a.36.36,0,0,1,.1-.265.335.335,0,0,1,.242-.1h2.691V12.063h-2.691a.335.335,0,0,1-.242-.1.309.309,0,0,1-.1-.219V10.269a.356.356,0,0,1,.1-.264.333.333,0,0,1,.242-.1h2.691V6.865q0-.345.321-.345h2.324a.4.4,0,0,1,.253.092.306.306,0,0,1,.114.253Z" fill="#222"/>
          <path id="패스_6775" data-name="패스 6775" d="M138.135,10.683a8.765,8.765,0,0,0,.253,2.254,5.058,5.058,0,0,0,.942,1.817,5.282,5.282,0,0,0,2.416,1.656.931.931,0,0,1,.447.3.886.886,0,0,1,.1.483v1.472c0,.169-.061.273-.184.311a.781.781,0,0,1-.437-.012,8.543,8.543,0,0,1-1.725-.564,8.141,8.141,0,0,1-1.31-.7q-.185-.138-.426-.322a6.107,6.107,0,0,1-.506-.437,5.572,5.572,0,0,1-.541-.61,4.866,4.866,0,0,1-.506-.816,5.338,5.338,0,0,1-1.069,1.415,10.81,10.81,0,0,1-.908.724A5.18,5.18,0,0,1,134.1,18c-.239.123-.494.245-.77.368s-.572.238-.887.345a7.766,7.766,0,0,1-.908.253.777.777,0,0,1-.436.012c-.123-.038-.185-.142-.185-.311V17.192a.9.9,0,0,1,.1-.483.939.939,0,0,1,.449-.3,6.24,6.24,0,0,0,2.277-1.334,4.918,4.918,0,0,0,.69-.851,4.043,4.043,0,0,0,.437-.954,6.136,6.136,0,0,0,.23-1.151,13.355,13.355,0,0,0,.069-1.437h-3.7a.3.3,0,0,1-.231-.1.35.35,0,0,1-.091-.241v-1.7q0-.367.322-.368h3.656V6.612a.3.3,0,0,1,.115-.218.424.424,0,0,1,.3-.1h2.254a.335.335,0,0,1,.346.322V8.268h3.7q.322,0,.322.368v1.7a.347.347,0,0,1-.093.241.293.293,0,0,1-.229.1ZM147.84,24.92a.243.243,0,0,1,.174.081.27.27,0,0,1,.08.195v1.863a.275.275,0,0,1-.08.2.25.25,0,0,1-.174.08H137.146a3.041,3.041,0,0,1-2.173-.747,2.69,2.69,0,0,1-.794-2.059V20.458a.367.367,0,0,1,.092-.23.33.33,0,0,1,.276-.115h2.277a.337.337,0,0,1,.264.115.348.348,0,0,1,.1.23v2.967a1.444,1.444,0,0,0,.4,1.15,1.854,1.854,0,0,0,1.23.345Zm2.185-13.2q.323,0,.323.368v1.357a.328.328,0,0,1-.092.218.3.3,0,0,1-.231.1h-2.437v7.82a.308.308,0,0,1-.115.253.4.4,0,0,1-.253.092H144.9c-.214,0-.322-.115-.322-.345V6.865c0-.23.108-.345.322-.345h2.324a.4.4,0,0,1,.253.092.31.31,0,0,1,.115.253v4.853Z" fill="#222"/>
          <path id="패스_6776" data-name="패스 6776" d="M158.121,18.158v2.714a.446.446,0,0,1-.092.265.3.3,0,0,1-.254.126H155.5a.272.272,0,0,1-.229-.126.433.433,0,0,1-.092-.265V18.158H151.1c-.2,0-.3-.084-.3-.253V16.2c0-.184.1-.276.3-.276h11.961c.153,0,.23.092.23.276v1.7c0,.169-.077.253-.23.253Zm4.209-7.268a4.078,4.078,0,0,1-.4,1.84,3.749,3.749,0,0,1-1.127,1.345,5.151,5.151,0,0,1-1.714.817,7.929,7.929,0,0,1-2.139.276,7.82,7.82,0,0,1-2.128-.276,5.024,5.024,0,0,1-1.7-.828,3.886,3.886,0,0,1-1.127-1.345,3.985,3.985,0,0,1-.4-1.829,3.873,3.873,0,0,1,.4-1.737,4.5,4.5,0,0,1,1.127-1.437,5.48,5.48,0,0,1,1.7-.978,6.191,6.191,0,0,1,2.128-.356,6.276,6.276,0,0,1,2.139.356A5.636,5.636,0,0,1,160.8,7.7a4.376,4.376,0,0,1,1.127,1.438A3.967,3.967,0,0,1,162.33,10.89ZM168.2,24.92a.237.237,0,0,1,.172.081.263.263,0,0,1,.081.195v1.863a.268.268,0,0,1-.081.2.244.244,0,0,1-.172.08H157.154a3.044,3.044,0,0,1-2.173-.747,2.7,2.7,0,0,1-.794-2.059V22.666a.378.378,0,0,1,.092-.23.337.337,0,0,1,.278-.115h2.276a.343.343,0,0,1,.265.115.353.353,0,0,1,.1.23v.759a1.44,1.44,0,0,0,.4,1.15,1.852,1.852,0,0,0,1.23.345Zm-8.808-14.03a2.161,2.161,0,0,0-.207-.966,2.3,2.3,0,0,0-1.346-1.161,2.916,2.916,0,0,0-.932-.15,2.746,2.746,0,0,0-.9.15,2.324,2.324,0,0,0-.782.448,2.283,2.283,0,0,0-.552.713,2.134,2.134,0,0,0-.207.966,2.2,2.2,0,0,0,.207.977,2.114,2.114,0,0,0,.552.713,2.611,2.611,0,0,0,.782.449,2.561,2.561,0,0,0,.9.161,2.719,2.719,0,0,0,.932-.161,2.6,2.6,0,0,0,.793-.449,2.129,2.129,0,0,0,.553-.713A2.231,2.231,0,0,0,159.387,10.89ZM167.8,6.52a.4.4,0,0,1,.252.092.307.307,0,0,1,.115.253V22.62a.312.312,0,0,1-.115.241.366.366,0,0,1-.252.1h-2.3a.317.317,0,0,1-.253-.1.346.346,0,0,1-.092-.241V21.309h-3.932a.335.335,0,0,1-.243-.1.31.31,0,0,1-.1-.218V19.515a.36.36,0,0,1,.1-.264.335.335,0,0,1,.243-.1h3.932V6.865a.3.3,0,0,1,.345-.345Z" fill="#222"/>
        </g>
      </g>
    </g>
  </g>
</svg>
