<svg xmlns="http://www.w3.org/2000/svg" width="46" height="38" viewBox="0 0 46 38">
  <g id="icon" transform="translate(-1930 -385)">
    <rect id="사각형_5926" data-name="사각형 5926" width="46" height="38" transform="translate(1930 385)" fill="#fff" opacity="0"/>
    <path id="hat-graduation-svgrepo-com" d="M18.161,3.913a6.858,6.858,0,0,1,6.83,0l16.587,9.523a1.143,1.143,0,0,1,0,1.983l-6.284,3.608V29.287a1.144,1.144,0,0,1-.335.808l0,0-.005.005-.016.016-.052.05c-.044.041-.105.1-.185.168-.158.141-.388.336-.687.568A18.548,18.548,0,0,1,31.4,32.582a21.152,21.152,0,0,1-19.651,0,18.539,18.539,0,0,1-2.609-1.676c-.3-.231-.528-.427-.687-.568-.079-.07-.141-.127-.184-.168a1.215,1.215,0,0,1-.411-.882V19.027L3.286,16.4V27A1.143,1.143,0,0,1,1,27V14.427a1.143,1.143,0,0,1,.6-1Zm6.83,21.028a6.859,6.859,0,0,1-6.83,0l-8.016-4.6v8.439c.107.091.239.2.4.32a16.212,16.212,0,0,0,2.285,1.467,18.865,18.865,0,0,0,17.5,0A16.2,16.2,0,0,0,32.61,29.1c.157-.121.289-.229.4-.32V20.339ZM23.852,5.9a4.572,4.572,0,0,0-4.553,0L4.439,14.427,19.3,22.959a4.572,4.572,0,0,0,4.553,0l14.86-8.531Z" transform="translate(1931 384.997)" fill="#fff"/>
  </g>
</svg>
