<svg xmlns="http://www.w3.org/2000/svg" width="38" height="38" viewBox="0 0 38 38">
  <g id="icon" transform="translate(-1938 -384.72)">
    <rect id="사각형_5926" data-name="사각형 5926" width="38" height="38" transform="translate(1938 384.72)" fill="red" opacity="0"/>
    <g id="flag-svgrepo-com_2_" data-name="flag-svgrepo-com (2)" transform="translate(1945 386.72)">
      <path id="패스_5996" data-name="패스 5996" d="M5.585,37.25A1.231,1.231,0,0,1,4.4,35.994V2.506A1.231,1.231,0,0,1,5.585,1.25,1.231,1.231,0,0,1,6.771,2.506V35.994A1.231,1.231,0,0,1,5.585,37.25Z" transform="translate(-4.4 -1.25)" fill="#fff"/>
      <path id="패스_5997" data-name="패스 5997" d="M23.29,24.59H5.585a1.186,1.186,0,0,1,0-2.371h17.7c1.723,0,2.529-.458,2.687-.854s-.079-1.28-1.312-2.5l-1.9-1.9a3.983,3.983,0,0,1-1.3-2.845,4.384,4.384,0,0,1,1.3-3.256l1.9-1.9c1.17-1.17,1.533-2.118,1.359-2.529s-1.075-.822-2.735-.822H5.585a1.186,1.186,0,1,1,0-2.371h17.7c3.462,0,4.568,1.439,4.932,2.292.348.854.585,2.656-1.881,5.122l-1.9,1.9a2.063,2.063,0,0,0-.6,1.5,1.673,1.673,0,0,0,.537,1.2l1.96,1.944c2.419,2.419,2.181,4.221,1.834,5.09C27.811,23.136,26.689,24.59,23.29,24.59Z" transform="translate(-4.4 -0.088)" fill="#fff"/>
    </g>
  </g>
</svg>
