<svg xmlns="http://www.w3.org/2000/svg" width="37.04" height="37.04" viewBox="0 0 37.04 37.04">
  <g id="icon" transform="translate(-1938 -385)">
    <rect id="사각형_5926" data-name="사각형 5926" width="37.04" height="37.04" transform="translate(1938 385)" fill="red" opacity="0"/>
    <g id="slide-search-svgrepo-com" transform="translate(1938 388.636)">
      <path id="패스_5596" data-name="패스 5596" d="M2,8.629A4.631,4.631,0,0,1,6.636,4H31.571A4.631,4.631,0,0,1,36.2,8.629V27.86a4.631,4.631,0,0,1-4.632,4.629H20.777l-2.138-2.137H31.571a2.493,2.493,0,0,0,2.494-2.493V8.629a2.493,2.493,0,0,0-2.494-2.493H6.636A2.493,2.493,0,0,0,4.142,8.629v6.806A9.288,9.288,0,0,0,2,16.967Z" transform="translate(-0.561 -4)" fill="#fff"/>
      <path id="패스_5597" data-name="패스 5597" d="M12.349,15.156A9.392,9.392,0,0,0,9.966,13H24.75a1.078,1.078,0,0,1,0,2.156Z" transform="translate(4.732 -0.177)" fill="#fff"/>
      <path id="패스_5598" data-name="패스 5598" d="M13.076,19.156h7.547a1.078,1.078,0,1,0,0-2.156h-7.8A9.373,9.373,0,0,1,13.076,19.156Z" transform="translate(5.988 1.522)" fill="#fff"/>
      <path id="패스_5599" data-name="패스 5599" d="M7,10.078A1.078,1.078,0,0,1,8.078,9H18.86a1.078,1.078,0,0,1,0,2.156H8.078A1.078,1.078,0,0,1,7,10.078Z" transform="translate(3.514 -1.876)" fill="#fff"/>
      <path id="패스_5600" data-name="패스 5600" d="M15.208,25.683a7.905,7.905,0,1,0-1.525,1.525l4.165,4.165a1.078,1.078,0,0,0,1.525-1.525Zm-.551-4.776a5.75,5.75,0,1,1-5.75-5.75A5.75,5.75,0,0,1,14.657,20.907Z" transform="translate(-1 -0.324)" fill="#fff"/>
    </g>
  </g>
</svg>
